<?xml version="1.0" encoding="UTF-8" standalone="no"?>
<!-- Created with Inkscape (http://www.inkscape.org/) -->

<svg
   xmlns:dc="http://purl.org/dc/elements/1.1/"
   xmlns:cc="http://creativecommons.org/ns#"
   xmlns:rdf="http://www.w3.org/1999/02/22-rdf-syntax-ns#"
   xmlns:svg="http://www.w3.org/2000/svg"
   xmlns="http://www.w3.org/2000/svg"
   xmlns:sodipodi="http://sodipodi.sourceforge.net/DTD/sodipodi-0.dtd"
   xmlns:inkscape="http://www.inkscape.org/namespaces/inkscape"
   width="744.09448819"
   height="1052.3622047"
   id="svg2"
   version="1.1"
   inkscape:version="0.48.5 r10040"
   sodipodi:docname="droplets.svg">
  <defs
     id="defs4" />
  <sodipodi:namedview
     id="base"
     pagecolor="#ffffff"
     bordercolor="#666666"
     borderopacity="1.0"
     inkscape:pageopacity="0.0"
     inkscape:pageshadow="2"
     inkscape:zoom="2"
     inkscape:cx="459.97686"
     inkscape:cy="792.13053"
     inkscape:document-units="px"
     inkscape:current-layer="layer1"
     showgrid="false"
     showguides="true"
     inkscape:guide-bbox="true"
     inkscape:window-width="1920"
     inkscape:window-height="1017"
     inkscape:window-x="-8"
     inkscape:window-y="-8"
     inkscape:window-maximized="1" />
  <metadata
     id="metadata7">
    <rdf:RDF>
      <cc:Work
         rdf:about="">
        <dc:format>image/svg+xml</dc:format>
        <dc:type
           rdf:resource="http://purl.org/dc/dcmitype/StillImage" />
      </cc:Work>
    </rdf:RDF>
  </metadata>
  <g
     inkscape:label="Layer 1"
     inkscape:groupmode="layer"
     id="layer1">
    <path
       sodipodi:nodetypes="cccsssccc"
       inkscape:connector-curvature="0"
       id="path3833"
       d="m 551.98006,390.14189 -7,12.125 -5.125,8.90625 c -2.48614,4.08465 -3.9375,6.49746 -3.9375,10.53125 0,8.876 7.1865,16.0625 16.0625,16.0625 8.876,0 16.0625,-7.1865 16.0625,-16.0625 0,-3.98639 -1.47216,-6.52383 -3.84375,-10.4375 l -5.1875,-9 z"
       style="fill:none;stroke:#333333;stroke-width:3;stroke-miterlimit:4;stroke-dasharray:none;stroke-dashoffset:13.44000053" />
    <path
       sodipodi:open="true"
       transform="translate(177.96221,-96.653937)"
       sodipodi:end="10.23112"
       sodipodi:start="5.5117498"
       d="M 397.50948,517.68434 A 32.767857,12.857142 0 1 1 351.3378,517.36811"
       sodipodi:ry="12.857142"
       sodipodi:rx="32.767857"
       sodipodi:cy="526.64789"
       sodipodi:cx="374.01785"
       id="path3835"
       style="opacity:0.68959997;fill:none;stroke:#333333;stroke-width:2;stroke-linecap:round;stroke-miterlimit:4;stroke-dasharray:none;stroke-dashoffset:13.44000053"
       sodipodi:type="arc" />
    <path
       sodipodi:type="arc"
       style="opacity:0.68959997;fill:none;stroke:#4d4d4d;stroke-width:2;stroke-linecap:round;stroke-miterlimit:4;stroke-dasharray:none;stroke-dashoffset:13.44000053"
       id="path3837"
       sodipodi:cx="374.01785"
       sodipodi:cy="526.64789"
       sodipodi:rx="32.767857"
       sodipodi:ry="12.857142"
       d="M 397.50948,517.68434 A 32.767857,12.857142 0 1 1 351.3378,517.36811"
       sodipodi:start="5.5117498"
       sodipodi:end="10.23112"
       transform="matrix(1.4283445,0,0,1.4283445,17.7537,-321.00686)"
       sodipodi:open="true" />
    <path
       sodipodi:open="true"
       transform="matrix(2.0259116,0,0,2.0259116,-205.74706,-634.78316)"
       sodipodi:end="10.23112"
       sodipodi:start="5.5117498"
       d="M 397.50948,517.68434 A 32.767857,12.857142 0 1 1 351.3378,517.36811"
       sodipodi:ry="12.857142"
       sodipodi:rx="32.767857"
       sodipodi:cy="526.64789"
       sodipodi:cx="374.01785"
       id="path3839"
       style="opacity:0.68959997;fill:none;stroke:#808080;stroke-width:2;stroke-linecap:round;stroke-miterlimit:4;stroke-dasharray:none;stroke-dashoffset:13.44000053"
       sodipodi:type="arc" />
    <path
       style="fill:none;stroke:#333333;stroke-width:3;stroke-miterlimit:4;stroke-dasharray:none;stroke-dashoffset:13.44000053000000100"
       d="m 609.55358,335.38908 -2.85185,4.93982 -2.08796,3.62847 c -1.01288,1.66411 -1.60417,2.64711 -1.60417,4.29051 0,3.61615 2.92783,6.54398 6.54398,6.54398 3.61615,0 6.54398,-2.92783 6.54398,-6.54398 0,-1.62409 -0.59977,-2.65786 -1.56597,-4.25232 l -2.11343,-3.66666 z"
       id="path3841"
       inkscape:connector-curvature="0"
       sodipodi:nodetypes="cccsssccc" />
    <path
       sodipodi:nodetypes="cccsssccc"
       inkscape:connector-curvature="0"
       id="path3843"
       d="m 615.56646,329.73333 4.93982,2.85185 3.62847,2.08796 c 1.66411,1.01288 2.64711,1.60417 4.29051,1.60417 3.61615,0 6.54398,-2.92783 6.54398,-6.54398 0,-3.61615 -2.92783,-6.54398 -6.54398,-6.54398 -1.62409,0 -2.65786,0.59977 -4.25232,1.56597 l -3.66666,2.11343 z"
       style="fill:none;stroke:#333333;stroke-width:3;stroke-miterlimit:4;stroke-dasharray:none;stroke-dashoffset:13.44000053" />
    <path
       sodipodi:nodetypes="cccsssccc"
       inkscape:connector-curvature="0"
       id="path3845"
       d="m 604.7666,326.36276 -1.37348,-5.53611 -1.01378,-4.06172 c -0.42513,-1.90117 -0.68132,-3.01933 -1.82152,-4.20285 -2.5089,-2.60421 -6.64876,-2.68138 -9.25298,-0.17248 -2.60421,2.50891 -2.68138,6.64877 -0.17248,9.25298 1.12681,1.16961 2.27597,1.49797 4.07804,1.97588 l 4.06596,1.17429 z"
       style="fill:none;stroke:#333333;stroke-width:3;stroke-miterlimit:4;stroke-dasharray:none;stroke-dashoffset:13.44000053" />
    <path
       sodipodi:nodetypes="cccsssccc"
       inkscape:connector-curvature="0"
       id="path3847"
       d="m 471.40014,337.96392 -2.85185,4.93982 -2.08796,3.62847 c -1.01288,1.66411 -1.60417,2.64711 -1.60417,4.29051 0,3.61615 2.92783,6.54398 6.54398,6.54398 3.61615,0 6.54398,-2.92783 6.54398,-6.54398 0,-1.62409 -0.59977,-2.65786 -1.56597,-4.25232 l -2.11343,-3.66666 z"
       style="fill:none;stroke:#00ccff;stroke-width:3;stroke-miterlimit:4;stroke-dasharray:none;stroke-dashoffset:13.44000053000000100" />
    <path
       style="fill:none;stroke:#00ccff;stroke-width:3;stroke-miterlimit:4;stroke-dasharray:none;stroke-dashoffset:13.44000053000000100"
       d="m 486.40014,316.61432 -2.85185,4.93982 -2.08796,3.62847 c -1.01288,1.66411 -1.60417,2.64711 -1.60417,4.29051 0,3.61615 2.92783,6.54398 6.54398,6.54398 3.61615,0 6.54398,-2.92783 6.54398,-6.54398 0,-1.62409 -0.59977,-2.65786 -1.56597,-4.25232 l -2.11343,-3.66666 z"
       id="path3849"
       inkscape:connector-curvature="0"
       sodipodi:nodetypes="cccsssccc" />
    <path
       sodipodi:nodetypes="cccsssccc"
       inkscape:connector-curvature="0"
       id="path3851"
       d="m 465.75763,307.27117 -2.85185,4.93982 -2.08796,3.62847 c -1.01288,1.66411 -1.60417,2.64711 -1.60417,4.29051 0,3.61615 2.92783,6.54398 6.54398,6.54398 3.61615,0 6.54398,-2.92783 6.54398,-6.54398 0,-1.62409 -0.59977,-2.65786 -1.56597,-4.25232 l -2.11343,-3.66666 z"
       style="fill:none;stroke:#00ccff;stroke-width:3;stroke-miterlimit:4;stroke-dasharray:none;stroke-dashoffset:13.44000053000000100" />
    <text
       xml:space="preserve"
       style="font-size:18px;font-style:normal;font-weight:normal;line-height:125%;letter-spacing:0px;word-spacing:0px;fill:#000000;fill-opacity:1;stroke:none;font-family:Arial Rounded MT Bold;-inkscape-font-specification:Arial Rounded MT Bold"
       x="432.04224"
       y="344.19473"
       id="text3869"
       sodipodi:linespacing="125%"><tspan
         sodipodi:role="line"
         id="tspan3871"
         x="432.04224"
         y="344.19473"
         style="font-style:normal;font-variant:normal;font-weight:bold;font-stretch:normal;fill:#00ccff;font-family:Arial Rounded MT Bold;-inkscape-font-specification:Arial Rounded MT Bold">WP</tspan></text>
  </g>
</svg>
