<?xml version="1.0" encoding="UTF-8" standalone="no"?>
<!-- Created with Inkscape (http://www.inkscape.org/) -->

<svg
   xmlns:dc="http://purl.org/dc/elements/1.1/"
   xmlns:cc="http://creativecommons.org/ns#"
   xmlns:rdf="http://www.w3.org/1999/02/22-rdf-syntax-ns#"
   xmlns:svg="http://www.w3.org/2000/svg"
   xmlns="http://www.w3.org/2000/svg"
   xmlns:sodipodi="http://sodipodi.sourceforge.net/DTD/sodipodi-0.dtd"
   xmlns:inkscape="http://www.inkscape.org/namespaces/inkscape"
   width="64px"
   height="64px"
   id="svg3903"
   version="1.1"
   inkscape:version="0.48.5 r10040"
   sodipodi:docname="New document 5">
  <defs
     id="defs3905" />
  <sodipodi:namedview
     id="base"
     pagecolor="#ffffff"
     bordercolor="#666666"
     borderopacity="1.0"
     inkscape:pageopacity="0.0"
     inkscape:pageshadow="2"
     inkscape:zoom="2.75"
     inkscape:cx="-9.0635447"
     inkscape:cy="67.195199"
     inkscape:current-layer="layer1"
     showgrid="true"
     inkscape:document-units="px"
     inkscape:grid-bbox="true"
     inkscape:window-width="1920"
     inkscape:window-height="1017"
     inkscape:window-x="-8"
     inkscape:window-y="-8"
     inkscape:window-maximized="1" />
  <metadata
     id="metadata3908">
    <rdf:RDF>
      <cc:Work
         rdf:about="">
        <dc:format>image/svg+xml</dc:format>
        <dc:type
           rdf:resource="http://purl.org/dc/dcmitype/StillImage" />
        <dc:title></dc:title>
      </cc:Work>
    </rdf:RDF>
  </metadata>
  <g
     id="layer1"
     inkscape:label="Layer 1"
     inkscape:groupmode="layer">
    <path
       sodipodi:nodetypes="cccsssccc"
       inkscape:connector-curvature="0"
       id="path3847"
       d="m 39.824355,35.644985 -2.85185,4.93982 -2.08796,3.62847 c -1.01288,1.66411 -1.60417,2.64711 -1.60417,4.29051 0,3.61615 2.92783,6.54398 6.54398,6.54398 3.61615,0 6.54398,-2.92783 6.54398,-6.54398 0,-1.62409 -0.59977,-2.65786 -1.56597,-4.25232 l -2.11343,-3.66666 z"
       style="fill:none;stroke:#00ccff;stroke-width:3;stroke-miterlimit:4;stroke-dasharray:none;stroke-dashoffset:13.44000053" />
    <path
       style="fill:none;stroke:#00ccff;stroke-width:3;stroke-miterlimit:4;stroke-dasharray:none;stroke-dashoffset:13.44000053"
       d="m 54.824355,14.295385 -2.85185,4.93982 -2.08796,3.62847 c -1.01288,1.66411 -1.60417,2.64711 -1.60417,4.29051 0,3.61615 2.92783,6.54398 6.54398,6.54398 3.61615,0 6.54398,-2.92783 6.54398,-6.54398 0,-1.62409 -0.59977,-2.65786 -1.56597,-4.25232 l -2.11343,-3.66666 z"
       id="path3849"
       inkscape:connector-curvature="0"
       sodipodi:nodetypes="cccsssccc" />
    <path
       sodipodi:nodetypes="cccsssccc"
       inkscape:connector-curvature="0"
       id="path3851"
       d="m 34.181845,4.952235 -2.85185,4.9398201 -2.08796,3.6284699 c -1.01288,1.66411 -1.60417,2.64711 -1.60417,4.29051 0,3.61615 2.92783,6.54398 6.54398,6.54398 3.61615,0 6.54398,-2.92783 6.54398,-6.54398 0,-1.62409 -0.59977,-2.65786 -1.56597,-4.25232 l -2.11343,-3.6666599 z"
       style="fill:none;stroke:#00ccff;stroke-width:3;stroke-miterlimit:4;stroke-dasharray:none;stroke-dashoffset:13.44000053" />
    <text
       xml:space="preserve"
       style="font-size:18px;font-style:normal;font-weight:normal;line-height:125%;letter-spacing:0px;word-spacing:0px;fill:#000000;fill-opacity:1;stroke:none;font-family:Arial Rounded MT Bold;-inkscape-font-specification:Arial Rounded MT Bold"
       x="0.46645245"
       y="41.875793"
       id="text3869"
       sodipodi:linespacing="125%"><tspan
         sodipodi:role="line"
         id="tspan3871"
         x="0.46645245"
         y="41.875793"
         style="font-style:normal;font-variant:normal;font-weight:bold;font-stretch:normal;fill:#00ccff;font-family:Arial Rounded MT Bold;-inkscape-font-specification:Arial Rounded MT Bold">WP</tspan></text>
  </g>
</svg>
