<?xml version="1.0" encoding="UTF-8" standalone="no"?>
<!-- Created with Inkscape (http://www.inkscape.org/) -->

<svg
   xmlns:dc="http://purl.org/dc/elements/1.1/"
   xmlns:cc="http://creativecommons.org/ns#"
   xmlns:rdf="http://www.w3.org/1999/02/22-rdf-syntax-ns#"
   xmlns:svg="http://www.w3.org/2000/svg"
   xmlns="http://www.w3.org/2000/svg"
   xmlns:sodipodi="http://sodipodi.sourceforge.net/DTD/sodipodi-0.dtd"
   xmlns:inkscape="http://www.inkscape.org/namespaces/inkscape"
   width="64px"
   height="64px"
   id="svg3424"
   version="1.1"
   inkscape:version="0.48.5 r10040"
   sodipodi:docname="logo.svg">
  <defs
     id="defs3426" />
  <sodipodi:namedview
     id="base"
     pagecolor="#ffffff"
     bordercolor="#666666"
     borderopacity="1.0"
     inkscape:pageopacity="0.0"
     inkscape:pageshadow="2"
     inkscape:zoom="5.5"
     inkscape:cx="32"
     inkscape:cy="32"
     inkscape:current-layer="layer1"
     showgrid="true"
     inkscape:document-units="px"
     inkscape:grid-bbox="true"
     inkscape:window-width="1920"
     inkscape:window-height="1017"
     inkscape:window-x="-8"
     inkscape:window-y="-8"
     inkscape:window-maximized="1" />
  <metadata
     id="metadata3429">
    <rdf:RDF>
      <cc:Work
         rdf:about="">
        <dc:format>image/svg+xml</dc:format>
        <dc:type
           rdf:resource="http://purl.org/dc/dcmitype/StillImage" />
        <dc:title></dc:title>
      </cc:Work>
    </rdf:RDF>
  </metadata>
  <g
     id="layer1"
     inkscape:label="Layer 1"
     inkscape:groupmode="layer">
    <g
       id="g10373"
       transform="matrix(0.38040043,0,0,-0.38040043,28.55318,12.789017)"
       style="fill:#ff7f2a">
      <path
         inkscape:connector-curvature="0"
         d="m 0,0 4.79,-32.896 c 1.552,0.224 3.136,0.346 4.75,0.346 1.612,0 3.198,-0.122 4.747,-0.346 L 19.079,0 C 15.962,0.45 12.78,0.694 9.539,0.694 6.298,0.694 3.117,0.45 0,0"
         style="fill:#ff7f2a;fill-opacity:1;fill-rule:nonzero;stroke:none"
         id="path10375" />
    </g>
    <g
       id="g10377"
       transform="matrix(0.38040043,0,0,-0.38040043,16.581332,17.946523)"
       style="fill:#ff7f2a">
      <path
         inkscape:connector-curvature="0"
         d="m 0,0 20.591,-26.087 c 2.479,1.957 5.242,3.566 8.223,4.754 L 16.514,9.551 C 10.53,7.165 4.977,3.933 0,0"
         style="fill:#ff7f2a;fill-opacity:1;fill-rule:nonzero;stroke:none"
         id="path10379" />
    </g>
    <g
       id="g10381"
       transform="matrix(0.38040043,0,0,-0.38040043,8.7847976,28.392282)"
       style="fill:#ff7f2a">
      <path
         inkscape:connector-curvature="0"
         d="m 0,0 30.883,-12.3 c 1.186,2.979 2.796,5.743 4.753,8.22 L 9.548,16.512 C 5.615,11.536 2.384,5.985 0,0"
         style="fill:#ff7f2a;fill-opacity:1;fill-rule:nonzero;stroke:none"
         id="path10383" />
    </g>
    <g
       id="g10385"
       transform="matrix(0.38040043,0,0,-0.38040043,41.500528,14.313205)"
       style="fill:#ff7f2a">
      <path
         inkscape:connector-curvature="0"
         d="m 0,0 -12.302,-30.884 c 2.982,-1.186 5.746,-2.797 8.225,-4.755 l 20.59,26.088 C 11.535,-5.617 5.983,-2.386 0,0"
         style="fill:#ff7f2a;fill-opacity:1;fill-rule:nonzero;stroke:none"
         id="path10387" />
    </g>
    <g
       id="g10389"
       transform="matrix(0.38040043,0,0,-0.38040043,51.946856,22.111034)"
       style="fill:#ff7f2a">
      <path
         inkscape:connector-curvature="0"
         d="m 0,0 -26.09,-20.592 c 1.959,-2.475 3.568,-5.241 4.754,-8.22 l 30.885,12.3 C 7.163,-10.527 3.933,-4.976 0,0"
         style="fill:#ff7f2a;fill-opacity:1;fill-rule:nonzero;stroke:none"
         id="path10391" />
    </g>
    <g
       id="g10393"
       transform="matrix(0.38040043,0,0,-0.38040043,36.847851,43.914787)"
       style="fill:#ff7f2a">
      <path
         inkscape:connector-curvature="0"
         d="m 0,0 -1.394,-6.133 -10.872,0 -10.873,0 -1.393,6.133 -10.17,0 c 5.177,-5.529 13.299,-8.434 22.436,-8.434 9.135,0 17.257,2.905 22.435,8.434 L 0,0 z"
         style="fill:#ff7f2a;fill-opacity:1;fill-rule:nonzero;stroke:none"
         id="path10395" />
    </g>
    <g
       id="g10397"
       transform="matrix(0.38040043,0,0,-0.38040043,32.181819,44.498208)"
       style="fill:#ff7f2a">
      <path
         inkscape:connector-curvature="0"
         d="M 0,0 C 6.01,12.017 16.014,19.472 27.481,24.076 24.422,36.409 13.28,45.554 0,45.554 -13.281,45.554 -24.421,36.409 -27.482,24.076 -16.015,19.472 -6.01,12.017 0,0"
         style="fill:#ff7f2a;fill-opacity:1;fill-rule:nonzero;stroke:none"
         id="path10399" />
    </g>
    <g
       id="g10401"
       transform="matrix(0.38040043,0,0,-0.38040043,31.048417,44.816183)"
       style="fill:#ff7f2a">
      <path
         inkscape:connector-curvature="0"
         d="m 0,0 c 0,0 -0.158,0.253 -0.453,0.725 -0.303,0.465 -0.708,1.181 -1.295,2.034 -0.586,0.853 -1.285,1.893 -2.198,3.006 -0.43,0.577 -0.932,1.153 -1.472,1.752 -0.264,0.302 -0.535,0.612 -0.812,0.93 -0.293,0.303 -0.595,0.614 -0.902,0.93 -0.309,0.314 -0.615,0.644 -0.944,0.96 -0.337,0.311 -0.681,0.628 -1.03,0.948 -0.682,0.66 -1.449,1.272 -2.218,1.923 -0.774,0.643 -1.618,1.243 -2.462,1.876 -0.887,0.579 -1.744,1.235 -2.692,1.792 -1.841,1.198 -3.868,2.23 -5.93,3.257 -2.076,1.007 -4.254,1.884 -6.456,2.692 -2.209,0.793 -4.451,1.5 -6.687,2.103 -2.242,0.573 -4.455,1.134 -6.626,1.548 -2.17,0.418 -4.275,0.799 -6.284,1.083 -2.008,0.295 -3.916,0.523 -5.681,0.72 -3.53,0.362 -6.487,0.601 -8.562,0.706 -2.076,0.116 -3.261,0.182 -3.261,0.182 0,0 0.296,0.016 0.853,0.045 0.556,0.029 1.373,0.08 2.414,0.1 2.079,0.037 5.059,0.103 8.631,-0.076 3.569,-0.172 7.739,-0.549 12.159,-1.313 2.21,-0.379 4.482,-0.849 6.768,-1.434 2.283,-0.596 4.579,-1.295 6.845,-2.093 2.248,-0.844 4.471,-1.762 6.594,-2.813 2.116,-1.061 4.152,-2.206 6.02,-3.473 0.957,-0.6 1.834,-1.286 2.711,-1.923 0.843,-0.686 1.683,-1.338 2.449,-2.03 0.761,-0.702 1.527,-1.353 2.188,-2.068 0.338,-0.35 0.67,-0.693 0.996,-1.029 0.318,-0.343 0.612,-0.7 0.909,-1.036 0.295,-0.342 0.583,-0.672 0.865,-1 0.261,-0.34 0.517,-0.673 0.765,-1.001 0.5,-0.649 0.962,-1.273 1.351,-1.892 0.833,-1.195 1.459,-2.306 1.979,-3.21 C -0.936,2.023 -0.634,1.262 -0.374,0.769 -0.13,0.267 0,0 0,0"
         style="fill:#ff7f2a;fill-opacity:1;fill-rule:nonzero;stroke:none"
         id="path10403" />
    </g>
    <g
       id="g10405"
       transform="matrix(0.38040043,0,0,-0.38040043,29.886599,43.868341)"
       style="fill:#ff7f2a">
      <path
         inkscape:connector-curvature="0"
         d="m 0,0 c 0,0 -0.186,0.193 -0.535,0.556 -0.352,0.356 -0.847,0.909 -1.534,1.542 -0.341,0.319 -0.703,0.683 -1.123,1.055 -0.427,0.365 -0.89,0.758 -1.384,1.178 -0.505,0.406 -1.061,0.816 -1.634,1.259 -0.592,0.42 -1.213,0.863 -1.861,1.323 -1.329,0.876 -2.793,1.78 -4.395,2.649 -1.591,0.881 -3.337,1.685 -5.148,2.495 -3.653,1.553 -7.667,2.95 -11.779,4.012 -4.095,1.122 -8.277,1.924 -12.214,2.579 -1.975,0.297 -3.884,0.591 -5.704,0.81 -1.819,0.221 -3.543,0.412 -5.137,0.567 -3.191,0.296 -5.857,0.516 -7.729,0.611 -1.873,0.109 -2.943,0.172 -2.943,0.172 0,0 0.268,0.015 0.769,0.046 0.502,0.03 1.239,0.084 2.177,0.107 1.877,0.049 4.564,0.133 7.787,0.023 3.224,-0.091 6.984,-0.366 10.991,-0.879 2,-0.283 4.071,-0.562 6.153,-0.99 2.084,-0.411 4.194,-0.873 6.281,-1.431 2.088,-0.56 4.154,-1.202 6.161,-1.916 2.016,-0.687 3.941,-1.536 5.79,-2.37 1.837,-0.868 3.577,-1.784 5.165,-2.759 0.808,-0.46 1.55,-0.985 2.285,-1.46 0.717,-0.503 1.398,-1.007 2.049,-1.49 C -6.884,7.173 -6.263,6.706 -5.709,6.216 -5.165,5.713 -4.639,5.25 -4.165,4.794 -3.704,4.327 -3.271,3.888 -2.872,3.483 -2.481,3.068 -2.144,2.666 -1.83,2.315 -1.185,1.626 -0.782,1.005 -0.466,0.614 -0.162,0.212 0,0 0,0"
         style="fill:#ff7f2a;fill-opacity:1;fill-rule:nonzero;stroke:none"
         id="path10407" />
    </g>
    <g
       id="g10409"
       transform="matrix(0.38040043,0,0,-0.38040043,28.138772,42.870931)"
       style="fill:#ff7f2a">
      <path
         inkscape:connector-curvature="0"
         d="m 0,0 c 0,0 -0.875,0.443 -2.385,1.251 -0.74,0.438 -1.699,0.836 -2.78,1.315 -0.543,0.234 -1.109,0.502 -1.724,0.75 -0.621,0.233 -1.275,0.48 -1.958,0.737 -1.347,0.549 -2.863,0.997 -4.445,1.519 -0.788,0.273 -1.616,0.491 -2.463,0.717 -0.843,0.233 -1.705,0.472 -2.581,0.714 -1.775,0.403 -3.593,0.882 -5.473,1.239 -0.935,0.19 -1.879,0.383 -2.826,0.575 -0.954,0.163 -1.911,0.327 -2.87,0.491 -1.912,0.346 -3.839,0.61 -5.733,0.882 -1.901,0.224 -3.766,0.509 -5.583,0.681 -1.815,0.205 -3.573,0.366 -5.239,0.525 -1.67,0.135 -3.25,0.264 -4.707,0.381 -1.461,0.098 -2.799,0.186 -3.987,0.267 -1.189,0.062 -2.226,0.118 -3.08,0.163 -1.709,0.066 -2.688,0.127 -2.688,0.127 0,0 0.975,0.087 2.687,0.198 1.71,0.078 4.161,0.209 7.104,0.206 1.47,-0.017 3.064,-0.023 4.75,-0.097 1.684,-0.075 3.463,-0.137 5.296,-0.305 1.837,-0.129 3.731,-0.318 5.652,-0.544 1.917,-0.255 3.867,-0.501 5.806,-0.834 0.968,-0.178 1.935,-0.352 2.9,-0.528 0.958,-0.204 1.913,-0.409 2.861,-0.611 0.948,-0.194 1.884,-0.414 2.799,-0.673 0.917,-0.245 1.825,-0.487 2.716,-0.726 0.882,-0.277 1.748,-0.55 2.597,-0.817 0.846,-0.272 1.674,-0.535 2.461,-0.853 1.585,-0.599 3.084,-1.161 4.413,-1.815 0.67,-0.31 1.312,-0.608 1.922,-0.891 0.6,-0.312 1.154,-0.639 1.68,-0.929 C -3.829,2.525 -2.91,2.034 -2.217,1.527 -0.798,0.568 0,0 0,0"
         style="fill:#ff7f2a;fill-opacity:1;fill-rule:nonzero;stroke:none"
         id="path10411" />
    </g>
    <g
       id="g10413"
       transform="matrix(0.38040043,0,0,-0.38040043,26.316273,42.549757)"
       style="fill:#ff7f2a">
      <path
         inkscape:connector-curvature="0"
         d="m 0,0 c 0,0 -0.905,0.187 -2.479,0.553 -0.781,0.202 -1.746,0.373 -2.844,0.582 -1.095,0.225 -2.339,0.43 -3.7,0.653 -1.354,0.244 -2.834,0.44 -4.393,0.67 -1.556,0.252 -3.216,0.396 -4.918,0.639 -1.71,0.183 -3.478,0.37 -5.274,0.56 -1.798,0.18 -3.624,0.354 -5.457,0.482 -1.827,0.177 -3.66,0.285 -5.463,0.42 -1.805,0.09 -3.578,0.252 -5.299,0.325 -1.721,0.09 -3.384,0.175 -4.962,0.257 -1.579,0.069 -3.072,0.135 -4.449,0.197 -1.38,0.053 -2.645,0.102 -3.766,0.144 -1.121,0.033 -2.1,0.06 -2.906,0.082 -1.612,0.026 -2.536,0.065 -2.536,0.065 0,0 0.917,0.11 2.526,0.262 1.611,0.117 3.914,0.317 6.684,0.408 1.383,0.036 2.884,0.099 4.472,0.092 1.587,0.014 3.263,0.014 4.994,-0.035 1.731,-0.031 3.52,-0.095 5.338,-0.185 1.815,-0.118 3.662,-0.204 5.504,-0.365 1.843,-0.151 3.682,-0.343 5.491,-0.544 1.812,-0.186 3.584,-0.474 5.301,-0.707 1.712,-0.286 3.369,-0.535 4.927,-0.869 1.561,-0.303 3.032,-0.613 4.378,-0.96 C -8.157,2.558 -7.512,2.4 -6.897,2.248 -6.289,2.068 -5.713,1.897 -5.17,1.737 -4.087,1.413 -3.145,1.144 -2.388,0.862 -0.864,0.329 0,0 0,0"
         style="fill:#ff7f2a;fill-opacity:1;fill-rule:nonzero;stroke:none"
         id="path10415" />
    </g>
    <g
       id="g10417"
       transform="matrix(0.38040043,0,0,-0.38040043,25.639997,42.986841)"
       style="fill:#ff7f2a">
      <path
         inkscape:connector-curvature="0"
         d="m 0,0 c 0,0 -0.957,0.006 -2.626,0.055 -1.668,0.046 -4.057,0.167 -6.913,0.208 -1.428,0.032 -2.973,0.068 -4.608,0.105 -1.631,0.062 -3.358,0.068 -5.143,0.1 -1.784,0.036 -3.628,0.049 -5.501,0.107 -1.873,0.019 -3.777,0.039 -5.68,0.058 -1.904,0.041 -3.806,0.08 -5.68,0.074 -1.874,-0.003 -3.719,0.044 -5.504,0.062 -3.568,-0.008 -6.904,0.062 -9.759,0.047 -1.427,-0.012 -2.738,0.002 -3.9,0.015 -1.163,0.023 -2.171,-0.033 -3.006,-0.041 -1.668,-0.029 -2.627,-0.024 -2.627,-0.024 0,0 0.944,0.142 2.603,0.349 0.831,0.09 1.839,0.245 2.999,0.338 1.158,0.105 2.468,0.222 3.898,0.322 1.43,0.123 2.979,0.203 4.619,0.266 1.64,0.07 3.37,0.163 5.16,0.201 1.789,0.024 3.639,0.077 5.519,0.08 1.88,0.025 3.79,0.007 5.699,-0.016 1.908,-0.04 3.819,-0.079 5.698,-0.118 1.879,-0.065 3.726,-0.171 5.515,-0.251 1.789,-0.074 3.516,-0.184 5.156,-0.327 1.636,-0.139 3.185,-0.272 4.613,-0.393 C -8.038,1.11 -6.737,0.934 -5.584,0.775 -4.432,0.622 -3.427,0.488 -2.599,0.378 -0.944,0.151 0,0 0,0"
         style="fill:#ff7f2a;fill-opacity:1;fill-rule:nonzero;stroke:none"
         id="path10419" />
    </g>
    <g
       id="g10421"
       transform="matrix(0.38040043,0,0,-0.38040043,33.315224,44.816183)"
       style="fill:#ff7f2a">
      <path
         inkscape:connector-curvature="0"
         d="m 0,0 c 0,0 0.129,0.267 0.372,0.769 0.262,0.493 0.564,1.254 1.095,2.152 0.521,0.904 1.147,2.015 1.98,3.21 0.388,0.619 0.85,1.243 1.35,1.892 0.249,0.328 0.505,0.661 0.767,1.001 0.281,0.328 0.57,0.658 0.863,1 0.298,0.336 0.592,0.693 0.909,1.036 0.327,0.336 0.659,0.679 0.997,1.029 0.66,0.715 1.427,1.366 2.187,2.068 0.767,0.692 1.607,1.344 2.45,2.03 0.878,0.637 1.754,1.323 2.71,1.923 1.868,1.267 3.904,2.412 6.021,3.473 2.123,1.051 4.346,1.969 6.593,2.813 2.267,0.798 4.564,1.497 6.845,2.093 2.287,0.585 4.558,1.055 6.768,1.434 4.421,0.764 8.59,1.141 12.16,1.313 3.573,0.179 6.552,0.113 8.631,0.076 1.041,-0.02 1.858,-0.071 2.413,-0.1 0.558,-0.029 0.855,-0.045 0.855,-0.045 0,0 -1.186,-0.066 -3.263,-0.182 C 60.628,28.88 57.672,28.641 54.14,28.279 52.377,28.082 50.468,27.854 48.462,27.559 46.453,27.275 44.347,26.894 42.177,26.476 40.005,26.062 37.793,25.501 35.551,24.928 33.314,24.325 31.073,23.618 28.863,22.825 26.662,22.017 24.484,21.14 22.408,20.133 20.344,19.106 18.319,18.074 16.476,16.876 15.529,16.319 14.672,15.663 13.786,15.084 12.942,14.451 12.098,13.851 11.323,13.208 10.554,12.557 9.789,11.945 9.104,11.285 8.757,10.965 8.412,10.648 8.076,10.337 7.747,10.021 7.44,9.691 7.132,9.377 6.825,9.061 6.524,8.75 6.23,8.447 5.952,8.129 5.68,7.819 5.417,7.517 4.877,6.918 4.375,6.342 3.945,5.765 3.032,4.652 2.334,3.612 1.748,2.759 1.16,1.906 0.757,1.19 0.453,0.725 0.157,0.253 0,0 0,0"
         style="fill:#ff7f2a;fill-opacity:1;fill-rule:nonzero;stroke:none"
         id="path10423" />
    </g>
    <g
       id="g10425"
       transform="matrix(0.38040043,0,0,-0.38040043,34.476509,43.868341)"
       style="fill:#ff7f2a">
      <path
         inkscape:connector-curvature="0"
         d="m 0,0 c 0,0 0.164,0.212 0.467,0.614 0.316,0.391 0.719,1.012 1.363,1.701 0.315,0.351 0.652,0.753 1.042,1.168 0.4,0.405 0.833,0.844 1.293,1.311 0.476,0.456 1.001,0.919 1.545,1.422 0.555,0.49 1.175,0.957 1.803,1.473 0.651,0.483 1.332,0.987 2.05,1.49 0.734,0.475 1.476,1 2.284,1.46 1.589,0.975 3.328,1.891 5.166,2.759 1.849,0.834 3.772,1.683 5.789,2.37 2.006,0.714 4.073,1.356 6.161,1.916 2.088,0.558 4.199,1.02 6.281,1.431 2.083,0.428 4.153,0.707 6.153,0.99 4.007,0.513 7.767,0.788 10.992,0.879 3.222,0.11 5.909,0.026 7.786,-0.023 0.937,-0.023 1.674,-0.077 2.178,-0.107 0.501,-0.031 0.769,-0.046 0.769,-0.046 0,0 -1.07,-0.063 -2.945,-0.172 -1.871,-0.095 -4.538,-0.315 -7.728,-0.611 -1.595,-0.155 -3.318,-0.346 -5.137,-0.567 -1.82,-0.219 -3.729,-0.513 -5.703,-0.81 C 37.671,17.993 33.49,17.191 29.394,16.069 25.281,15.007 21.268,13.61 17.615,12.057 15.803,11.247 14.058,10.443 12.467,9.562 10.866,8.693 9.4,7.789 8.073,6.913 7.423,6.453 6.803,6.01 6.212,5.59 5.637,5.147 5.082,4.737 4.578,4.331 4.083,3.911 3.62,3.518 3.193,3.153 2.774,2.781 2.411,2.417 2.07,2.098 1.384,1.465 0.889,0.912 0.536,0.556 0.186,0.193 0,0 0,0"
         style="fill:#ff7f2a;fill-opacity:1;fill-rule:nonzero;stroke:none"
         id="path10427" />
    </g>
    <g
       id="g10429"
       transform="matrix(0.38040043,0,0,-0.38040043,36.224714,42.870931)"
       style="fill:#ff7f2a">
      <path
         inkscape:connector-curvature="0"
         d="m 0,0 c 0,0 0.798,0.568 2.217,1.527 0.693,0.507 1.613,0.998 2.662,1.588 0.525,0.29 1.079,0.617 1.679,0.929 0.611,0.283 1.254,0.581 1.923,0.891 1.329,0.654 2.827,1.216 4.413,1.815 0.786,0.318 1.613,0.581 2.46,0.853 0.85,0.267 1.716,0.54 2.597,0.817 0.892,0.239 1.799,0.481 2.715,0.726 0.916,0.259 1.852,0.479 2.802,0.673 0.946,0.202 1.901,0.407 2.86,0.611 0.964,0.176 1.931,0.35 2.899,0.528 1.939,0.333 3.889,0.579 5.806,0.834 1.921,0.226 3.815,0.415 5.652,0.544 1.833,0.168 3.612,0.23 5.296,0.305 1.686,0.074 3.28,0.08 4.75,0.097 2.943,0.003 5.394,-0.128 7.104,-0.206 1.712,-0.111 2.687,-0.198 2.687,-0.198 0,0 -0.979,-0.061 -2.688,-0.127 -0.853,-0.045 -1.891,-0.101 -3.08,-0.163 C 53.566,11.963 52.228,11.875 50.767,11.777 49.31,11.66 47.73,11.531 46.06,11.396 44.393,11.237 42.636,11.076 40.821,10.871 39.005,10.699 37.14,10.414 35.237,10.19 33.345,9.918 31.417,9.654 29.504,9.308 28.547,9.144 27.589,8.98 26.636,8.817 25.688,8.625 24.745,8.432 23.809,8.242 21.928,7.885 20.112,7.406 18.336,7.003 17.459,6.761 16.599,6.522 15.754,6.289 14.907,6.063 14.08,5.845 13.292,5.572 11.709,5.05 10.194,4.602 8.846,4.053 8.163,3.796 7.51,3.549 6.89,3.316 6.275,3.068 5.708,2.8 5.164,2.566 4.085,2.087 3.125,1.689 2.385,1.251 0.875,0.443 0,0 0,0"
         style="fill:#ff7f2a;fill-opacity:1;fill-rule:nonzero;stroke:none"
         id="path10431" />
    </g>
    <g
       id="g10433"
       transform="matrix(0.38040043,0,0,-0.38040043,38.047405,42.549757)"
       style="fill:#ff7f2a">
      <path
         inkscape:connector-curvature="0"
         d="m 0,0 c 0,0 0.865,0.329 2.388,0.862 0.756,0.282 1.699,0.551 2.782,0.875 0.543,0.16 1.12,0.331 1.727,0.511 0.614,0.152 1.26,0.31 1.934,0.478 1.346,0.347 2.816,0.657 4.377,0.96 1.559,0.334 3.215,0.583 4.926,0.869 1.719,0.233 3.491,0.521 5.302,0.707 1.81,0.201 3.649,0.393 5.491,0.544 1.843,0.161 3.688,0.247 5.505,0.365 1.816,0.09 3.607,0.154 5.338,0.185 1.731,0.049 3.406,0.049 4.994,0.035 1.587,0.007 3.088,-0.056 4.472,-0.092 2.771,-0.091 5.074,-0.291 6.683,-0.408 1.61,-0.152 2.526,-0.262 2.526,-0.262 0,0 -0.924,-0.039 -2.534,-0.065 C 55.103,5.542 54.125,5.515 53.002,5.482 51.882,5.44 50.617,5.391 49.237,5.338 47.861,5.276 46.369,5.21 44.788,5.141 43.21,5.059 41.547,4.974 39.827,4.884 38.106,4.811 36.333,4.649 34.526,4.559 32.725,4.424 30.891,4.316 29.064,4.139 27.232,4.011 25.405,3.837 23.607,3.657 21.812,3.467 20.044,3.28 18.333,3.097 16.632,2.854 14.972,2.71 13.416,2.458 11.856,2.228 10.377,2.032 9.022,1.788 7.662,1.565 6.418,1.36 5.323,1.135 4.224,0.926 3.261,0.755 2.478,0.553 0.906,0.187 0,0 0,0"
         style="fill:#ff7f2a;fill-opacity:1;fill-rule:nonzero;stroke:none"
         id="path10435" />
    </g>
    <g
       id="g10437"
       transform="matrix(0.38040043,0,0,-0.38040043,38.72368,42.986841)"
       style="fill:#ff7f2a">
      <path
         inkscape:connector-curvature="0"
         d="m 0,0 c 0,0 0.944,0.151 2.599,0.378 0.828,0.11 1.832,0.244 2.985,0.397 1.152,0.159 2.452,0.335 3.883,0.442 1.429,0.121 2.977,0.254 4.613,0.393 1.64,0.143 3.369,0.253 5.157,0.327 1.788,0.08 3.636,0.186 5.514,0.251 1.881,0.039 3.791,0.078 5.698,0.118 1.909,0.023 3.819,0.041 5.699,0.016 1.88,-0.003 3.73,-0.056 5.52,-0.08 1.79,-0.038 3.52,-0.131 5.16,-0.201 1.639,-0.063 3.189,-0.143 4.619,-0.266 1.429,-0.1 2.739,-0.217 3.898,-0.322 1.158,-0.093 2.168,-0.248 2.998,-0.338 1.66,-0.207 2.604,-0.349 2.604,-0.349 0,0 -0.958,-0.005 -2.627,0.024 C 57.484,0.798 56.477,0.854 55.313,0.831 54.152,0.818 52.841,0.804 51.413,0.816 48.558,0.831 45.222,0.761 41.655,0.769 39.87,0.751 38.025,0.704 36.151,0.707 34.278,0.713 32.375,0.674 30.47,0.633 28.567,0.614 26.664,0.594 24.791,0.575 22.917,0.517 21.072,0.504 19.29,0.468 17.504,0.436 15.777,0.43 14.147,0.368 12.512,0.331 10.967,0.295 9.54,0.263 6.682,0.222 4.294,0.101 2.627,0.055 0.956,0.006 0,0 0,0"
         style="fill:#ff7f2a;fill-opacity:1;fill-rule:nonzero;stroke:none"
         id="path10439" />
    </g>
    <g
       id="g10441"
       transform="matrix(0.38040043,0,0,-0.38040043,32.181819,45.532249)"
       style="fill:#ff7f2a">
      <path
         inkscape:connector-curvature="0"
         d="m 0,0 5.859,0 c 1.675,0 3.033,0.521 3.033,2.195 0,1.675 1.357,3.032 3.031,3.032 l 65.453,0 c 1.675,0 3.033,-1.357 3.033,-3.032 0,-1.674 -1.358,-3.031 -3.033,-3.031 l -60.528,0 c -1.725,0 -1.894,-1.328 -1.894,-2.195 0,-1.675 -1.357,-3.032 -3.031,-3.032 l -11.923,0 -11.923,0 c -1.675,0 -3.032,1.357 -3.032,3.032 0,0.867 -0.169,2.195 -1.894,2.195 l -60.527,0 c -1.675,0 -3.033,1.357 -3.033,3.031 0,1.675 1.358,3.032 3.033,3.032 l 65.453,0 c 1.673,0 3.031,-1.357 3.031,-3.032 C -8.892,0.521 -7.535,0 -5.86,0 L 0,0 z"
         style="fill:#ff7f2a;fill-opacity:1;fill-rule:nonzero;stroke:none"
         id="path10443" />
    </g>
  </g>
</svg>
